# AST/ASF file generated using VICON BodyLanguage
# -----------------------------------------------
:version 1.10
:name VICON
:units
  mass 1.0
  length 0.45
  angle deg
:documentation
   .ast/.asf automatically generated from VICON data using
   VICON BodyBuilder and BodyLanguage model FoxedUp or BRILLIANT.MOD
:root
   order TX TY TZ RX RY RZ
   axis XYZ
   position 0 0 0  
   orientation 0 0 0 
:bonedata
  begin
     id 1 
     name lhipjoint
     direction 0.575328 -0.747301 0.332475 
     length 2.40933 
     axis 0 0 0  XYZ
  end
  begin
     id 2 
     name lfemur
     direction 0.34202 -0.939693 0  
     length 7.31453  
     axis 0 0 20  XYZ
    dof rx ry rz
    limits (-160.0 20.0)
           (-70.0 70.0)
           (-60.0 70.0)
  end
  begin
     id 3 
     name ltibia
     direction 0.34202 -0.939693 0   
     length 7.82185   
     axis 0 0 20   XYZ
    dof rx
    limits (-10.0 170.0)
  end
  begin
     id 4 
     name lfoot
     direction 0.0795993 -0.218697 0.972541   
     length 2.19173   
     axis -90 7.62852e-016 20   XYZ
    dof rx rz
    limits (-45.0 90.0)
           (-70.0 20.0)
  end
  begin
     id 5 
     name ltoes
     direction 1.53537e-011 -4.21894e-011 1   
     length 1.10023   
     axis -90 7.62852e-016 20   XYZ
    dof rx
    limits (-90.0 20.0)
  end
  begin
     id 6 
     name rhipjoint
     direction -0.513884 -0.783789 0.348708   
     length 2.29716  
     axis 0 0 0  XYZ 
  end
  begin
     id 7 
     name rfemur
     direction -0.34202 -0.939693 0   
     length 7.59573   
     axis 0 0 -20   XYZ
    dof rx ry rz
    limits (-160.0 20.0)
           (-70.0 70.0)
           (-70.0 60.0)
  end
  begin
     id 8 
     name rtibia
     direction -0.34202 -0.939693 0   
     length 7.66402   
     axis 0 0 -20   XYZ
    dof rx
    limits (-10.0 170.0)
 end
 begin
     id 9 
     name rfoot
     direction -0.137793 -0.378584 0.915253   
     length 2.27056  
     axis -90 -7.62852e-016 -20   XYZ
    dof rx rz
    limits (-45.0 90.0)
           (-20.0 70.0)
  end
  begin
     id 10 
     name rtoes
     direction -1.53493e-011 -4.22159e-011 1   
     length 1.11766   
     axis -90 -7.62852e-016 -20   XYZ
    dof rx
    limits (-90.0 20.0)
  end
  begin
     id 11 
     name lowerback
     direction -0.00732775 0.998356 -0.05685   
     length 2.16513   
     axis 0 0 0   XYZ
    dof rx ry rz
    limits (-20.0 45.0)
           (-30.0 30.0)
           (-30.0 30.0)
  end
  begin
     id 12 
     name upperback
     direction 0.0218081 0.999627 -0.0164647   
     length 2.16755   
     axis 0 0 0   XYZ
    dof rx ry rz
    limits (-20.0 45.0)
           (-30.0 30.0)
           (-30.0 30.0)
  end
  begin
     id 13 
     name thorax
     direction 0.02365 0.999661 0.0108914   
     length 2.16932   
     axis 0 0 0   XYZ
    dof rx ry rz
    limits (-20.0 45.0)
           (-30.0 30.0)
           (-30.0 30.0)
  end
  begin
     id 14 
     name lowerneck
     direction -0.0523929 0.978385 0.200044   
     length 1.63877   
     axis 0 0 0   XYZ
    dof rx ry rz
    limits (-20.0 45.0)
           (-30.0 30.0)
           (-30.0 30.0)
  end
  begin
     id 15 
     name upperneck
     direction 0.0448674 0.981321 -0.187074   
     length 1.69014   
     axis 0 0 0   XYZ
    dof rx ry rz
    limits (-20.0 45.0)
           (-30.0 30.0)
           (-30.0 30.0)
  end
  begin
     id 16
     name head
     direction 0.0199089 0.996118 -0.0857429  
     length 1.70094  
     axis 0 0 0   XYZ
    dof rx ry rz
    limits (-20.0 45.0)
           (-30.0 30.0)
           (-30.0 30.0)
  end
  begin
     id 17 
     name lclavicle
     direction 0.940366 0.30191 -0.156722  
     length 3.37521  
     axis 0 0 0   XYZ
    dof ry rz
    limits (-20.0 10.0)
           (0.0 20.0)
  end
  begin
     id 18 
     name lhumerus
     direction 1 -4.4897e-011 -1.7911e-027   
     length 5.25287   
     axis 180 -30 -90   XYZ
    dof rx ry rz
    limits (-60.0 90.0)
           (-90.0 90.0)
           (-90.0 90.0)
  end
  begin
     id 19
     name lradius
     direction 1 -4.48951e-011 1.04424e-027   
     length 3.51014   
     axis 180 -30 -90   XYZ
    dof rx
    limits (-10.0 170.0)
  end
  begin
     id 20
     name lwrist
     direction 1 -4.48997e-011 -9.5942e-028   
     length 1.75507   
     axis 8.48502e-016 90 90   XYZ
    dof ry
    limits (-180.0 0.0)
 end
  begin
     id 21 
     name lhand
     direction 1 -4.48831e-011 -1.90777e-027   
     length 0.706179   
     axis 1.22306e-015 90 90   XYZ
    dof rx rz
    limits (-90.0 90.0)
           (-45.0 45.0)
  end
  begin
     id 22 
     name lfingers
     direction 1 -4.49108e-011 -3.85244e-027   
     length 0.569339   
     axis 2.44611e-015 90 90   XYZ
    dof rx
    limits (0.0 90.0)
  end
  begin
     id 23
     name lthumb
     direction 0.707107 -6.34953e-011 0.707107   
     length 0.817461   
     axis -90 45 -1.62303e-014   XYZ
    dof rx rz
    limits (-45.0 45.0)
           (-45.0 45.0)
  end
  begin
     id 24 
     name rclavicle
     direction -0.905329 0.382405 -0.184787   
     length 3.30787  
     axis 0 0 0   XYZ 
    dof ry rz
    limits (-10.0 20.0)
           (-20.0 0.0)
  end
  begin
     id 25 
     name rhumerus
     direction -1 -4.48953e-011 -9.15316e-029  
     length 5.28721   
     axis 180 30 90   XYZ
    dof rx ry rz
    limits (-90.0 60.0)
           (-90.0 90.0)
           (-90.0 90.0)
  end
  begin
     id 26 
     name rradius
     direction -1 -4.48987e-011 9.37824e-028   
     length 3.50544   
     axis 180 30 90   XYZ
    dof rx
    limits (-10.0 170.0)
  end
  begin
     id 27 
     name rwrist
     direction -1 -4.48967e-011 -9.58414e-028   
     length 1.75272   
     axis 8.48502e-016 -90 -90   XYZ
    dof ry
    limits (-180.0 0.0)
  end
  begin
     id 28
     name rhand
     direction -1 -4.48904e-011 -1.91266e-027   
     length 0.884996   
     axis 1.22306e-015 -90 -90   XYZ
    dof rx rz
    limits (-90.0 90.0)
           (-45.0 45.0)
  end
  begin
     id 29
     name rfingers
     direction -1 -4.4909e-011 -3.85015e-027   
     length 0.713507   
     axis 2.44611e-015 -90 -90   XYZ
    dof rx
    limits (0.0 90.0)
  end
  begin
     id 30
     name rthumb
     direction -0.707107 -6.34853e-011 0.707107   
     length 1.02446   
     axis -90 -45 1.62303e-014   XYZ
    dof rx rz
    limits (-45.0 45.0)
           (-45.0 45.0)
  end
:hierarchy
  begin
    root lhipjoint rhipjoint lowerback
    lhipjoint lfemur
    lfemur ltibia
    ltibia lfoot
    lfoot ltoes
    rhipjoint rfemur
    rfemur rtibia
    rtibia rfoot
    rfoot rtoes
    lowerback upperback
    upperback thorax
    thorax lowerneck lclavicle rclavicle
    lowerneck upperneck
    upperneck head
    lclavicle lhumerus
    lhumerus lradius
    lradius lwrist
    lwrist lhand lthumb
    lhand lfingers
    rclavicle rhumerus
    rhumerus rradius
    rradius rwrist
    rwrist rhand rthumb
    rhand rfingers
  end

#!OML:ASF F:\twosubjects\two\Thursday\Session 1\justin.ASF
:FULLY-SPECIFIED
:DEGREES
192
root 9.03847 19.1721 -19.7302 -21.9928 -85.3203 26.9528
lowerback 3.19942 0.639337 -0.258597
upperback -2.0174 0.910725 2.76696
thorax -3.92538 0.48701 2.94477
lowerneck -24.3349 6.98892 -3.66697
upperneck 23.6568 10.2234 3.32893
head 11.3127 4.68925 3.47938
rclavicle 1.39646e-014 -1.90833e-014
rhumerus -20.4894 -30.4673 -0.703574
rradius 34.3047
rwrist -11.7372
rhand -12.8549 6.01559
rfingers 7.12502
rthumb 13.233 -23.5444
lclavicle 1.39646e-014 -1.90833e-014
lhumerus -26.6213 44.6668 7.7217
lradius 28.8603
lwrist 2.64682
lhand -7.14246 56.8959
lfingers 7.12502
lthumb 18.7338 86.0138
rfemur -15.4947 -6.31305 11.9504
rtibia 41.3621
rfoot -12.4093 -5.7428
rtoes -25.0979
lfemur -13.4824 4.93875 -12.312
ltibia 35.3895
lfoot -6.11043 -4.31937
ltoes -19.6803
193
root 9.04424 19.1677 -19.7587 -21.3694 -85.5845 26.4704
lowerback 2.99188 0.675203 -0.444889
upperback -1.93763 0.948453 2.88748
thorax -3.73296 0.509842 3.1741
lowerneck -24.3016 7.07882 -3.64641
upperneck 23.7149 10.3647 3.24717
head 11.3286 4.74096 3.46923
rclavicle 6.75868e-015 1.59028e-014
rhumerus -21.8513 -30.6919 -1.87273
rradius 33.7621
rwrist -10.449
rhand -12.6301 6.46975
rfingers 7.12502
rthumb 13.4497 -23.076
lclavicle 6.75868e-015 1.59028e-014
lhumerus -28.3606 44.6652 8.3895
lradius 27.9681
lwrist 1.18185
lhand -3.71752 54.1307
lfingers 7.12502
lthumb 22.0252 82.8965
rfemur -15.8728 -6.74657 13.025
rtibia 42.1177
rfoot -13.0597 -5.61173
rtoes -25.9135
lfemur -13.8746 5.94697 -12.9388
ltibia 35.9441
lfoot -6.42686 -5.7358
ltoes -20.707
194
root 9.05821 19.1518 -19.7593 -18.8931 -85.684 24.1344
lowerback 2.79909 0.60143 -0.471044
upperback -1.83696 0.849183 3.23237
thorax -3.52057 0.460375 3.55504
lowerneck -24.2274 7.15752 -4.04272
upperneck 23.6507 10.6283 3.21752
head 11.2567 4.82359 3.55084
rclavicle 1.60519e-014 3.33958e-014
rhumerus -22.873 -29.8345 -3.46692
rradius 34.128
rwrist -11.6028
rhand -13.8659 5.26298
rfingers 7.12502
rthumb 12.2584 -24.3578
lclavicle 1.60519e-014 3.33958e-014
lhumerus -29.9761 43.6721 9.55774
lradius 26.9002
lwrist 0.520894
lhand -3.12065 52.5167
lfingers 7.12502
lthumb 22.5982 81.214
rfemur -16.2609 -7.371 13.9578
rtibia 42.8128
rfoot -13.741 -4.8304
rtoes -25.2193
lfemur -14.3253 6.23681 -13.5738
ltibia 36.3373
lfoot -6.61767 -6.90545
ltoes -20.8243
195
root 9.08238 19.1167 -19.7453 -16.5677 -85.2886 22.1495
lowerback 2.4798 0.393404 -0.457493
upperback -1.8205 0.569062 3.49809
thorax -3.30797 0.318972 3.84131
lowerneck -24.0976 7.18631 -4.80572
upperneck 23.4752 10.8386 3.58463
head 11.0831 4.9125 3.81123
rclavicle 2.68359e-015 -1.59028e-015
rhumerus -23.7969 -29.593 -4.86204
rradius 34.1827
rwrist -11.7437
rhand -14.6704 5.09026
rfingers 7.12502
rthumb 11.4827 -24.5752
lclavicle 2.68359e-015 -1.59028e-015
lhumerus -30.4028 40.0525 12.0494
lradius 25.4393
lwrist 2.39776
lhand -3.66418 51.8839
lfingers 7.12502
lthumb 22.0764 80.6437
rfemur -16.8077 -8.28297 14.6128
rtibia 43.3695
rfoot -13.9792 -3.73356
rtoes -25.0764
lfemur -15.0552 5.7557 -14.469
ltibia 36.4711
lfoot -6.74286 -7.64771
ltoes -21.2636
196
root 9.09377 19.0713 -19.7687 -17.6687 -85.5781 23.2375
lowerback 2.46235 0.494994 -0.729814
upperback -1.71061 0.693647 3.58244
thorax -3.19836 0.386135 4.07661
lowerneck -24.6727 7.22697 -4.4314
upperneck 23.6762 10.7627 3.68993
head 11.2842 4.91427 3.82274
rclavicle -4.87022e-015 -7.95139e-015
rhumerus -25.1063 -30.2917 -6.13407
rradius 34.1247
rwrist -10.9894
rhand -15.0189 4.9909
rfingers 7.12502
rthumb 11.1465 -24.693
lclavicle -4.87022e-015 -7.95139e-015
lhumerus -33.3891 43.6065 11.3843
lradius 24.9497
lwrist -3.4363
lhand -2.69454 51.7871
lfingers 7.12502
lthumb 23.0071 80.434
rfemur -16.9215 -7.95512 15.3716
rtibia 43.7368
rfoot -14.1217 -3.16382
rtoes -26.1287
lfemur -15.1309 6.05183 -15.1051
ltibia 36.5339
lfoot -6.71494 -8.61136
ltoes -20.2369
